<svg width="570" height="142" viewBox="0 0 570 142" fill="none" xmlns="http://www.w3.org/2000/svg">
<path d="M16.409 89.0773L0 105.017V112.05C0 117.441 8.4389 125.411 13.596 125.411H33.0524C37.2718 125.411 45.9451 119.551 45.9451 112.753V91.6558C46.5077 82.8419 39.1471 71.7306 35.8653 66.8079C29.0673 54.8528 18.2843 41.9601 16.6434 33.0523V21.8005C18.1849 18.7089 19.2219 17.581 23.6758 17.581C26.9576 17.581 29.0673 18.5187 30.005 21.8005V39.6159L45.9451 23.9102V14.5336C45.9451 9.14212 37.7406 2.34412 32.8179 2.34412H14.5337C6.09476 2.34412 0 11.0174 0 16.8778V33.99C0 46.4139 9.61097 57.0265 13.596 62.8229C23.9102 77.8254 29.3017 86.9675 29.5362 93.0623V105.486C29.5362 108.065 26.9576 110.409 22.7381 110.409C18.9875 110.409 17.1122 109.002 16.6434 105.486L16.409 89.0773Z" fill="#F2F2F2"/>
<path fill-rule="evenodd" clip-rule="evenodd" d="M64.6973 130.408V0H95.6255C103.592 0.248396 109.684 8.69388 109.684 15.649V62.3475C109.684 71.0414 101.015 77.7481 95.6255 77.7481H80.8643V130.408H64.6973ZM144.361 0H127.96V141.586L144.361 124.447V0ZM226.836 0V130.408H265.965V114.014H243.003V71.5382H251.907L258.233 55.3924H243.003V16.3942H265.965V0H226.836ZM284.475 0V130.408H300.408V78.2449H307.906C311.267 78.3059 313.061 79.9837 313.061 82.9644V124.695L329.462 141.338V80.4805C329.462 77.2513 324.542 70.793 319.387 70.0478C324.776 69.7994 329.462 62.8443 329.462 59.6152V14.407C329.462 7.70029 320.558 2.18614e-05 314.701 0H284.475ZM341.88 75.7609V62.5959H362.03V75.7609H341.88ZM374.683 0V130.408H388.976V34.5271L400.457 130.408H413.109L425.762 34.5271L425.059 130.408H440.991V0H419.201L408.189 89.9195L396.708 0H374.683ZM471.217 0L455.05 130.408H470.045L472.623 104.823H478.949L484.338 88.9259H474.966L480.589 34.5271L489.024 130.408H506.128L489.024 0H471.217ZM519.718 130.408V0H534.948L555.098 80.7289V0H569.625V130.408H556.738L534.713 50.4245V130.408H519.718ZM162.403 0V130.408H194.268C202.917 127.697 206.178 124.776 207.389 115.504V15.649C206.492 5.74729 203.096 2.68055 193.799 0H162.403ZM178.804 114.014V16.3942V15.649H186.302C189.688 16.6799 190.965 17.8412 191.691 21.3621V109.046C190.972 112.39 189.71 113.332 186.536 114.014H178.804ZM80.6373 62.354V16.4089H88.8418C91.1859 16.6433 93.0612 18.2842 93.53 21.0972V57.9002C93.2956 60.0099 91.1859 62.354 88.8418 62.354H80.6373ZM300.517 16.4089V62.354H308.722C311.066 62.354 313.176 60.0099 313.41 57.9002V21.0972C312.941 18.2842 311.066 16.6433 308.722 16.4089H300.517Z" fill="#F2F2F2"/>
</svg>
