<svg id="Layer_1" data-name="Layer 1" xmlns="http://www.w3.org/2000/svg" viewBox="0 0 451 101.59"><defs><style>.cls-1{fill:#ea1d22;}</style></defs><path class="cls-1" d="M960,559.91c.39-.47.78-.95,1.19-1.4,1.76-2,3.51-3.94,5.32-5.86,1.59-1.7,3.24-3.33,4.86-5,2.42-2.46,4.82-4.94,7.26-7.39,1.81-1.83,3.66-3.61,5.49-5.42,1.18-1.17,2.33-2.37,3.54-3.52,1.93-1.84,3.9-3.64,5.83-5.48,3.13-3,6.27-5.93,9.36-8.93,2-2,3.91-4.06,5.95-6a27,27,0,0,1,3.47-2.59,3.81,3.81,0,0,1,1.52-.47,5.46,5.46,0,0,1,2.45-.07,2.61,2.61,0,0,1,1.89,2,4.19,4.19,0,0,1-.52,2.39c-.43,1.05-.88,2.08-1.31,3.13s-.79,1.93-1.2,2.9-.88,2-1.33,3-.91,2.07-1.35,3.12-.77,2-1.18,2.93-.87,1.94-1.29,2.92a2.6,2.6,0,0,0-.1.64l.18.09,1.64-1.6q4.82-4.77,9.65-9.53,3.85-3.78,7.75-7.52c1.66-1.6,3.34-3.16,5-4.71,2.24-2,4.45-4.08,6.78-6,2-1.64,4.08-3.15,6.17-4.67a3.37,3.37,0,0,1,3.08-.42,2,2,0,0,1,1.37,1.66,5,5,0,0,1-.9,3.32c-.57,1-1.07,2-1.64,2.94s-1,1.62-1.52,2.43c-.67,1.06-1.36,2.11-2,3.17s-1.52,2.41-2.29,3.61c-.55.86-1.11,1.72-1.68,2.57-1,1.57-2.11,3.12-3.14,4.69-.88,1.33-1.73,2.68-2.59,4-1.09,1.69-2.16,3.38-3.27,5s-2.13,3-3.16,4.58c-.88,1.31-1.69,2.67-2.57,4-1,1.54-2.09,3-3.13,4.59s-2.21,3.36-3.32,5l-3.18,4.75q-2.16,3.23-4.31,6.47c-.83,1.26-1.64,2.54-2.45,3.81-1,1.58-2,3.18-3,4.76s-2,3-3,4.58c-.71,1.13-1.36,2.29-2.06,3.43s-1.58,2.5-2.32,3.77-1.3,2.46-2,3.67c-.47.81-1,1.61-1.5,2.38-.66,1-1.38,1.87-2.05,2.82a7.34,7.34,0,0,1-2.19,2.11,2.93,2.93,0,0,1-2.49-.36,2.28,2.28,0,0,1-.4-2.85c.66-1.17,1.23-2.39,1.89-3.56.75-1.35,1.55-2.66,2.32-4,.55-1,1.08-1.93,1.63-2.89.4-.69.83-1.35,1.23-2,.56-1,1.09-1.91,1.65-2.86s1.08-1.76,1.6-2.64c.69-1.18,1.35-2.37,2-3.54.85-1.42,1.72-2.82,2.59-4.23.6-1,1.2-2,1.81-2.93.77-1.22,1.56-2.43,2.32-3.65.93-1.5,1.83-3,2.78-4.5,1.21-1.88,2.46-3.74,3.67-5.62,1-1.54,1.95-3.11,3-4.65,1.25-1.91,2.55-3.78,3.82-5.68s2.42-3.59,3.61-5.4c1-1.56,2-3.15,3-4.69.86-1.29,1.78-2.54,2.67-3.82a10.79,10.79,0,0,0,.75-1.15,1.54,1.54,0,0,0,.08-.5l-.2-.11c-.7.73-1.39,1.48-2.11,2.2-1.41,1.41-2.83,2.8-4.25,4.2-2.12,2.09-4.26,4.17-6.38,6.27q-5.09,5-10.15,10.09c-2.89,2.88-5.75,5.78-8.64,8.66-.8.8-1.63,1.59-2.5,2.32a2.22,2.22,0,0,1-1.13.36,9.45,9.45,0,0,1-1.68,0,1.65,1.65,0,0,1-1.46-2.24c.56-1.33,1.22-2.61,1.82-3.92.52-1.12,1-2.26,1.52-3.38s1.18-2.27,1.73-3.42c.41-.87.73-1.78,1.15-2.64.53-1.09,1.14-2.14,1.68-3.22.41-.83.77-1.69,1.16-2.53s.83-1.78,1.26-2.66c.53-1.12,1.09-2.22,1.61-3.34.19-.41.32-.86.48-1.3l-.26-.18c-.43.32-.88.6-1.28.95-1.51,1.38-3,2.78-4.52,4.15-1.68,1.52-3.38,3-5.07,4.51-2.41,2.12-4.84,4.22-7.24,6.36-1.76,1.57-3.47,3.19-5.21,4.77q-3.39,3.07-6.79,6.11c-1.57,1.39-3.17,2.75-4.74,4.14-1.78,1.58-3.54,3.18-5.31,4.77-1.08,1-2.15,1.94-3.25,2.89a1.25,1.25,0,0,1-.7.26c-.43,0-.87,0-1.3,0Z" transform="translate(-960 -489.2)"/><path class="cls-1" d="M1231.3,518.9a7.44,7.44,0,0,0-.73.52c-2.27,2.21-4.56,4.4-6.8,6.66-1.56,1.57-3,3.24-4.54,4.85-1.23,1.3-2.5,2.56-3.74,3.86l-5.87,6.19q-2.68,2.82-5.39,5.62-3.46,3.61-7,7.21a18,18,0,0,1-1.7,1.56,3.86,3.86,0,0,1-2.8,0,4.41,4.41,0,0,1-.83-.65,2,2,0,0,1-.19-2.32c.5-1,.91-2,1.36-3s.79-1.76,1.18-2.65.86-2,1.3-2.93c.56-1.23,1.14-2.46,1.69-3.71.41-.92.78-1.87,1.18-2.79.56-1.27,1.15-2.52,1.69-3.79s1-2.55,1.59-3.82c.18-.42.45-.8.59-1.22a2.73,2.73,0,0,0,0-.86c-.3,0-.69,0-.87.14-.86.77-1.65,1.6-2.47,2.41-1,1-2,1.9-2.92,2.89-1.78,1.84-3.52,3.72-5.32,5.55-2.61,2.65-5.25,5.27-7.88,7.89-2.13,2.11-4.23,4.26-6.42,6.31s-4.29,3.83-6.46,5.71a1.89,1.89,0,0,1-2,.15c-1.21-.44-2.38-1-3.65-1.54a1.7,1.7,0,0,1,.26-.43c1.87-1.89,3.76-3.79,5.65-5.68s4.11-4.07,6.15-6.13,4.32-4.34,6.44-6.55c2.52-2.63,5-5.29,7.49-7.94,1.34-1.43,2.68-2.86,4-4.31,1.55-1.73,3-3.5,4.6-5.22s3.3-3.59,5-5.37q3.12-3.33,6.26-6.64a6.31,6.31,0,0,1,1-1,3.86,3.86,0,0,1,3.18-.21c.65.19,1.14,1,1.65,1.59.73.82.26,1.65-.09,2.46-.43,1-.89,2-1.35,3-.55,1.22-1.12,2.42-1.67,3.64s-1,2.31-1.53,3.45-1.16,2.49-1.72,3.74-1,2.44-1.55,3.65c-.41.93-.88,1.84-1.3,2.77-.53,1.21-1,2.43-1.56,3.64l-.54,1.25.14.16a2.07,2.07,0,0,0,.5-.3c1.88-1.92,3.78-3.82,5.61-5.79,1.49-1.61,2.9-3.29,4.34-5,1-1.12,1.92-2.25,2.89-3.37q2.13-2.49,4.28-5c1.23-1.41,2.44-2.83,3.69-4.21q2.88-3.17,5.8-6.29t5.69-6c1.19-1.25,2.4-2.49,3.66-3.67,1.79-1.67,3.59-3.34,5.46-4.93,1.18-1,2.51-1.84,3.77-2.76.88-.65,1.9-.47,2.89-.5a2.46,2.46,0,0,1,2.16,1.05,3.65,3.65,0,0,1,.24,2.53c-.8,1.36-1.57,2.74-2.42,4.07-1.15,1.79-2.35,3.55-3.54,5.32q-1.43,2.15-2.88,4.28l-3.22,4.78c-1,1.4-1.93,2.8-2.85,4.22s-2,3.15-3,4.74-1.88,3-2.8,4.56-1.89,3.16-2.82,4.74q-1.66,2.85-3.31,5.7c-1,1.66-1.92,3.33-2.85,5s-2,3.67-3,5.5c-1.15,2.08-2.35,4.13-3.49,6.23-.9,1.67-1.73,3.39-2.61,5.07-.66,1.25-1.38,2.46-2,3.72-.56,1.08-1,2.19-1.57,3.28-.64,1.3-1.35,2.56-1.93,3.88a3.63,3.63,0,0,1-1.58,1.83,3.73,3.73,0,0,1-3-.22s-.13-.09-.13-.13a19.26,19.26,0,0,1,.11-3,11.21,11.21,0,0,1,.87-2.29c.42-1,.82-2,1.27-3,.53-1.17,1.09-2.32,1.65-3.47s1.13-2.35,1.68-3.53,1-2.29,1.57-3.41,1.13-2.11,1.67-3.18,1-2.15,1.54-3.21c.43-.83.93-1.63,1.37-2.46s1-1.94,1.48-2.89c.9-1.66,1.84-3.29,2.75-4.94.66-1.2,1.29-2.43,2-3.63s1.29-2.1,1.92-3.15,1.32-2.25,2-3.36c.5-.81,1-1.61,1.56-2.41.4-.61.83-1.2,1.2-1.82.1-.16,0-.4.06-.61Z" transform="translate(-960 -489.2)"/><path class="cls-1" d="M1284.59,558.36c.85.52,1.65,1,2.48,1.51s2,1,3,1.55c.82.44,1.62.94,2.46,1.34A2.54,2.54,0,0,1,1294,566c-.1.3-.49.52-.79.72a1.88,1.88,0,0,1-.71.25,1.35,1.35,0,0,1-.63.05c-.91-.2-1.82-.39-2.71-.67a19.9,19.9,0,0,1-2-.86c-.85-.4-1.7-.82-2.52-1.28s-1.57-.95-2.33-1.46c-1.42-1-2.85-1.9-4.21-2.93s-2.48-1.92-3.63-3c-1.46-1.35-2.89-2.74-4.22-4.22a10.41,10.41,0,0,1-1.25-2.36c-.41-.85-.79-1.71-1.27-2.73-.49.57-.9,1-1.26,1.48-.89,1.22-1.73,2.48-2.65,3.68-1.17,1.53-2.33,3.07-3.59,4.51a15.9,15.9,0,0,1-3.92,3.34c-.81.47-2.63.1-3-.71a2,2,0,0,1,0-1.67,35.91,35.91,0,0,1,2.52-3.65c1.58-2.05,3.24-4,4.8-6.1a52.45,52.45,0,0,0,3.25-4.75c1-1.65,1.77-3.42,2.62-5.15a10.77,10.77,0,0,0,1-6.55,3.42,3.42,0,0,0-1.92-2.57,5.59,5.59,0,0,0-4.25-.08c-.73.21-1.49.28-2.22.48-.9.25-1.79.55-2.66.87-.31.11-.57.35-.87.47-.83.34-.82,1-.74,1.73.16,1.49.38,3,.45,4.48a9.79,9.79,0,0,1-.69,4c-.45,1.16-.7,2.39-1.18,3.53a28.81,28.81,0,0,1-1.68,3.27,33.45,33.45,0,0,1-2.28,3.66,41.6,41.6,0,0,1-4,4.69,25.89,25.89,0,0,1-4.12,3.06,18.21,18.21,0,0,1-3.48,1.73,12.33,12.33,0,0,1-5.06.41,5.75,5.75,0,0,1-3.84-1.84,6.62,6.62,0,0,1-1.41-2.47,10.83,10.83,0,0,1-.23-4.86,10,10,0,0,1,1.27-3.81c.67-1.2,1.26-2.45,2-3.64a14.5,14.5,0,0,1,1.37-1.85q1.77-2.09,3.58-4.12a30.31,30.31,0,0,1,4.81-4.24c1.28-1,2.67-1.79,4-2.64.6-.38.66-.49.26-1.1a1.9,1.9,0,0,1,.73-2.44,7,7,0,0,1,4.51-.07,4.46,4.46,0,0,0,3.54-.43,26.4,26.4,0,0,1,2.68-1.29c.67-.3,1.34-.6,2-.85s1.36-.3,2-.59c1.35-.62,2.81-.16,4.18-.55a5.75,5.75,0,0,1,1.78.12c.58,0,1.16,0,1.75.08a3.52,3.52,0,0,1,2.83,1.68,32.65,32.65,0,0,1,1.79,3.09,12.12,12.12,0,0,1,.56,1.47,10.62,10.62,0,0,0,1.28-.94,18.11,18.11,0,0,1,4.7-3.36,22.46,22.46,0,0,1,3.31-1.21c2.17-.73,4.42-.46,6.61-.29a6.26,6.26,0,0,1,4.69,2.6,5.25,5.25,0,0,1,.82,2.37,10.42,10.42,0,0,1-.09,3.3,8.69,8.69,0,0,1-1.78,3.5,17.15,17.15,0,0,1-5.24,4.34,22.65,22.65,0,0,1-5.09,2.18,26,26,0,0,1-3.18.68,35.13,35.13,0,0,0-4.73,1.07,1.58,1.58,0,0,0-.84,2.51,16.91,16.91,0,0,0,3.49,3.91c1.86,1.66,3.81,3.2,5.71,4.81.31.26.48.37.8,0,.89-1.18,1.85-2.32,2.8-3.46.37-.46.79-.87,1.16-1.32a2.6,2.6,0,0,0,.26-.63c-.59,0-1.06,0-1.53-.1a9.2,9.2,0,0,1-1.55-.37c-.12,0-.2-.33-.23-.52a5,5,0,0,1,0-.79c1.3-.39,2.58-.71,3.82-1.16,1.65-.59,3.42-1,4.75-2.22s2.85-2.8,4.3-4.19c2-1.92,4-3.84,6.06-5.74s4-3.69,6-5.5c1.43-1.29,2.87-2.57,4.39-3.75,1.33-1,2.78-1.93,4.19-2.87a3.58,3.58,0,0,1,2.65-.46,2,2,0,0,1,1.35,3c-.46.8-.79,1.67-1.21,2.49s-.77,1.36-1.15,2c-.45.84-.92,1.67-1.34,2.53-.55,1.12-1.08,2.26-1.59,3.41s-1.11,2.58-1.63,3.88-.94,2.38-1.36,3.59c-.32.93-.54,1.9-.84,2.85s-.65,1.84-.94,2.77c-.19.58-.31,1.19-.49,1.78-.28.93-.59,1.85-.88,2.78-.19.62-.36,1.26-.55,1.89-.27,1-.55,1.92-.82,2.88-.2.71-.38,1.42-.61,2.12a24.15,24.15,0,0,1-.9,2.51c-.49,1.13-1.07,2.22-1.59,3.34-.37.8-.69.86-1.2.16a2.36,2.36,0,0,1-.59-1.55c0-1.4,0-2.82.07-4.22a24.49,24.49,0,0,1,.55-2.89c.15-.78.28-1.56.43-2.34.11-.56.25-1.12.35-1.69.16-.92.28-1.85.45-2.77.07-.39.26-.77.32-1.17.14-.91-.23-1.45-1.16-1.47-2.4,0-4.82-.13-7.21,0a11.92,11.92,0,0,0-3.44.87c-2.5,1-4.29,2.82-6.19,4.55Zm-34.37-21.11c0-.43,0-1,0-1.6,0-.76-.54-1-1.25-.7a11.8,11.8,0,0,0-1.47.83c-1.51,1.06-3.06,2.06-4.48,3.23a34.43,34.43,0,0,0-5.82,6c-1.13,1.51-2.18,3.07-3.17,4.67a8.34,8.34,0,0,0-1.06,2.61,10.44,10.44,0,0,0-.06,2.85,1.8,1.8,0,0,0,.6,1.17,3.37,3.37,0,0,0,3.25.23,12.45,12.45,0,0,0,4.21-2.66,31.85,31.85,0,0,0,6.3-7.78,36.27,36.27,0,0,0,1.93-4.08A9.14,9.14,0,0,0,1250.22,537.25Zm21.38,4.63a1.92,1.92,0,0,0,.47.09c.42-.11.84-.26,1.27-.36.72-.17,1.46-.29,2.19-.46.43-.1.85-.26,1.28-.4.9-.31,1.8-.61,2.69-1a25.45,25.45,0,0,0,3-1.2,26,26,0,0,0,3.38-2.08c1.57-1.15,2.7-2.6,2.53-4.72a1,1,0,0,0-1-1,10.29,10.29,0,0,0-6.19,1.16,20.42,20.42,0,0,0-5.12,3.77,42.63,42.63,0,0,0-3.21,3.88A19.63,19.63,0,0,0,1271.6,541.88Zm38.58-4.5-.17-.09c-3.1,2.6-6.24,5.15-9.13,8,.09.15.1.18.11.18a21.12,21.12,0,0,0,5.67-.26c.11,0,.2-.15.31-.21,1.36-.64,1.45-2,1.8-3.19.3-1,.6-2.08.92-3.11C1309.83,538.22,1310,537.81,1310.18,537.38Z" transform="translate(-960 -489.2)"/><path class="cls-1" d="M1325.35,551.36c.67-.06,1.34-.11,2-.2.3,0,.58-.16.87-.2,1.58-.23,3.17-.44,4.76-.66.13,0,.25-.06.38-.07,1.26-.13,2.53-.22,3.79-.4,1-.16,2.08-.42,3.12-.63l.25,0c1.59-.26,3.18-.46,4.75-.79,1.13-.24,2.21-.77,3.35-1a5,5,0,0,0,3.39-2.32,23.39,23.39,0,0,0,1.68-3.07,4.73,4.73,0,0,0,.39-1.52,1.55,1.55,0,0,0-.31-.84,1.46,1.46,0,0,1,.91-2,8.08,8.08,0,0,0,3.75-2.93c.81-1.11,1.76-2.11,2.57-3.21a8.22,8.22,0,0,0,1-1.83,1.23,1.23,0,0,0-.11-.87c-.66-1.44-.26-2.4,1.19-3.05a17.9,17.9,0,0,1,3.93-1.15,66.51,66.51,0,0,1,9.34-.71,37.17,37.17,0,0,1,6-.2c1.76.17,3.62.17,5.23,1.12.21.13.54.41.5.52a1.14,1.14,0,0,1-.56.67,14.78,14.78,0,0,1-1.86.44l-2.81.59c-.7.14-1.39.29-2.09.41-1,.16-1.9.27-2.85.44s-2,.4-2.94.59c-.76.15-1.52.3-2.28.4-1.28.17-2.57.36-3.85.41a1.85,1.85,0,0,0-1.51.9c-.58.79-1.14,1.6-1.68,2.42s-1.07,1.65-1.56,2.5c-.23.4,0,.68.57.68,3.49,0,7,.07,10.48.06.65,0,.86.22.78.82a.56.56,0,0,0,0,.13c0,1,0,1-1,1.14s-2.3.44-3.45.67l-.19,0c-1.3.14-2.61.24-3.91.43-.94.13-1.87.4-2.81.6-.71.15-1.42.26-2.12.45a4.55,4.55,0,0,0-3.42,2.59,21.54,21.54,0,0,1-1.36,2.55c-.31.53.18,1.24,1,1.35a12.48,12.48,0,0,0,1.5,0c4.22,0,8.45,0,12.68.05a21.32,21.32,0,0,1,4.32.67,9.69,9.69,0,0,1,2.41,1.05c.59.32.38.95.31,1.47a.76.76,0,0,1-.81.68c-1.65.11-3.31.24-5,.34l-6.14.39c-1.37.09-2.75.2-4.12.31-1.55.12-3.09.22-4.63.39-2,.21-4,.46-6,.73-1.44.2-2.88.42-4.31.69s-3,.65-4.45,1c-.81.17-1.64.27-2.46.45s-1.49.42-2.24.62c-.58.15-1.17.28-1.75.41s-1.44.25-2.14.43-1.41.45-2.12.65c-.41.12-.83.2-1.25.29-.69.16-1.38.29-2.06.46s-1.37.4-2,.6c-.47.14-1,.27-1.42.38-.65.16-1.3.28-1.94.45s-1.36.44-2,.64-1.12.29-1.68.42a8.64,8.64,0,0,0-1.87.43,7.33,7.33,0,0,1-3.11.32,2.73,2.73,0,0,1-2.2-2.17,11.42,11.42,0,0,1,0-1.94,6.49,6.49,0,0,1,.57-1.71c.37-.81.77-1.6,1.21-2.37.64-1.12,1.3-2.22,2-3.3.88-1.37,1.8-2.72,2.73-4.05.44-.64.94-1.23,1.4-1.85.92-1.22,1.82-2.47,2.76-3.67,1.19-1.51,2.42-3,3.62-4.49s2.41-3.08,3.65-4.59c1.11-1.35,2.28-2.67,3.42-4,1.78-2.09,3.51-4.22,5.35-6.25,1.53-1.68,3.18-3.24,4.79-4.84a1.47,1.47,0,0,1,2,0,1.23,1.23,0,0,1,.28,1.87c-1.07,1.58-2.15,3.14-3.21,4.72-1.37,2-2.71,4.1-4.08,6.13-1.13,1.68-2.31,3.34-3.45,5-.94,1.38-1.85,2.77-2.78,4.15L1331,542.7c-.88,1.31-1.79,2.6-2.67,3.92s-1.63,2.47-2.45,3.7c-.18.27-.4.53-.6.79Z" transform="translate(-960 -489.2)"/><path class="cls-1" d="M1051.74,547.61a3.09,3.09,0,0,0,2.45-.38,17.83,17.83,0,0,1,3.5-1.42,19.51,19.51,0,0,0,2.37-.9c1-.31,2-.53,3-.81.65-.18,1.3-.39,2-.58a1,1,0,0,1,.25-.08c1.37-.27,2.76-.51,4.13-.82s2.54-.67,3.82-1c.72-.18,1.47-.24,2.19-.43a1.87,1.87,0,0,0,1-.51c.86-1,1.68-2.12,2.48-3.21,1.19-1.64,2.35-3.3,3.51-5a1.78,1.78,0,0,0,.13-.59c-.43-.15-.81-.28-1.19-.43a.47.47,0,0,1-.28-.21,1.63,1.63,0,0,1,.68-1.91c1.21-.64,2.42-1.3,3.64-1.93a3.94,3.94,0,0,1,3.21-.5,6.46,6.46,0,0,0,2.83.34,38.51,38.51,0,0,0,5.15-.47,28.18,28.18,0,0,1,6.59-.6,22.91,22.91,0,0,1,3.25.6l.74.12a3.57,3.57,0,0,1,.1.35c.11,1.22.06,1.26-1.16,1.36-1.39.11-2.78.27-4.18.4-1.11.11-2.22.17-3.33.31-1.43.18-2.86.41-4.29.63-.8.13-1.61.24-2.4.43s-1.41.47-2.13.63a5,5,0,0,0-3.2,2.71c-.63,1.05-1.09,2.21-1.62,3.32-.3.63-.59,1.27-.91,1.89s-.22.95.52.91c1.31-.07,2.62-.22,3.92-.34h.13a52.33,52.33,0,0,1,11.09-.29,17.33,17.33,0,0,1-1.92.85c-1.3.39-2.62.73-4,1-.82.2-1.67.28-2.5.45s-1.45.34-2.17.53-1.27.34-1.9.52-1.38.42-2.07.59a5,5,0,0,1-1.09.14,5.17,5.17,0,0,0-4,1.85,11.1,11.1,0,0,0-1.27,2.09c-.5,1-.9,2.08-1.37,3.11-.28.62-.12,1,.54,1,1-.07,1.91-.24,2.86-.37l.19,0c1.8-.27,3.61-.53,5.41-.81,1.35-.22,2.7-.46,4-.69s2.81-.54,4.22-.73a28.79,28.79,0,0,1,3.59-.29,1.39,1.39,0,0,1,1.35,1.47c0,1.65-.12,1.83-1.79,2.07a15,15,0,0,0-1.6.41c-.85.22-1.7.43-2.54.66-1.19.32-2.36.67-3.55,1-.69.17-1.4.26-2.08.44s-1.53.46-2.3.66c-.58.16-1.16.28-1.75.4s-1.44.23-2.15.4-1.47.4-2.21.61l-.38.08-2.94.62c-.82.16-1.66.23-2.46.47a12.1,12.1,0,0,1-4,.36,1.51,1.51,0,0,1-1.5-1.5c0-.74,0-1.48,0-2.21a1.45,1.45,0,0,1,.24-.61c.89-1.5,1.78-3,2.66-4.49a11.75,11.75,0,0,0,.64-1.28,2.72,2.72,0,0,0,.09-.75c-.54.18-1,.3-1.37.47-1,.42-2,.9-3,1.31s-2,.76-3,1.15l-3,1.25c-1.07.44-2.14.85-3.2,1.29-.67.29-1.33.61-2,.9s-1.42.55-2.13.84l-4,1.66-2.22.89c-.77.32-1.54.67-2.33,1a10.05,10.05,0,0,1-2.16.69,2.22,2.22,0,0,1-1.91-.95,3.93,3.93,0,0,1-1.3-3.36,7.21,7.21,0,0,1,.77-1.94c.55-1.06,1.14-2.09,1.75-3.12.48-.8,1-1.56,1.53-2.35.94-1.47,1.85-2.94,2.8-4.39.65-1,1.37-1.9,2-2.87.89-1.32,1.73-2.67,2.63-4,1.14-1.68,2.34-3.31,3.49-5,1.25-1.82,2.45-3.67,3.73-5.46,1.09-1.54,2.28-3,3.39-4.54.69-1,1.27-2,2-2.9s1.45-2,2.81-2.12c.73-.09,1,.48,1.36.88a1,1,0,0,1,.13,1.51,29.73,29.73,0,0,0-1.83,3.08c-1,1.67-1.92,3.34-2.89,5s-1.88,3.14-2.79,4.72c-.68,1.18-1.29,2.39-2,3.56s-1.54,2.56-2.3,3.85-1.57,2.76-2.37,4.13-1.54,2.54-2.3,3.83C1052.16,546.68,1052,547.14,1051.74,547.61Z" transform="translate(-960 -489.2)"/><path class="cls-1" d="M1411,526.53v1.77c-1.12.35-2.25.69-3.37,1.07s-2.46.89-3.69,1.33-2.25.74-3.36,1.16c-1.31.51-2.61,1.06-3.9,1.64-1.09.49-2.16,1-3.22,1.59-.72.37-1.41.79-2.11,1.18l0,.25a10.79,10.79,0,0,0,1.26.14c1.91,0,3.82,0,5.73,0a34.43,34.43,0,0,1,4.77.3,9.34,9.34,0,0,1,4.55,1.78,5.11,5.11,0,0,1,2,3.63c0,.58.18,1.14.22,1.72a3.77,3.77,0,0,1-1.16,3,16,16,0,0,1-4,3.12c-1.54.8-3,1.69-4.58,2.52-1.27.68-2.55,1.37-3.86,2s-2.46,1-3.68,1.57c-1,.42-1.89.91-2.86,1.31s-2,.75-3,1.14c-.85.34-1.69.71-2.54,1s-1.48.51-2.22.76c-1,.34-2,.7-3,1s-2.14.56-3.22.84c-.72.18-1.43.43-2.16.54-1.7.25-3.46.59-5.06-.26a2.3,2.3,0,0,1-1.27-2.07c0-1.14,0-2.24,1.11-2.93a4.14,4.14,0,0,1,1.14-.55c.73-.19,1.49-.29,2.24-.45s1.37-.31,2.06-.48,1.53-.37,2.29-.58,1.4-.44,2.1-.65l1.42-.37c1-.26,2-.51,3-.81s1.76-.61,2.64-.91c.54-.18,1.09-.32,1.63-.51.77-.28,1.53-.59,2.3-.89s1.64-.6,2.46-.92c.61-.24,1.21-.5,1.81-.77,1-.43,2-.87,2.91-1.34s2.2-1.13,3.3-1.7,2-1,2.94-1.53c.71-.38,1.39-.81,2.23-1.3a8.23,8.23,0,0,0-1.44-.85c-1.4-.43-2.84-.74-4.24-1.16-1.94-.59-3.92-.24-5.87-.29-2.43-.07-4.86,0-7.29,0a1.29,1.29,0,0,1-1.17-.52,8.67,8.67,0,0,1-1.58-2.16,4.15,4.15,0,0,1,0-2.56c.61-1.68,2.09-2.69,3.51-3.63a15,15,0,0,1,2.78-1.17c.86-.33,1.72-.65,2.59-.94.54-.19,1.1-.32,1.65-.5s1.14-.41,1.72-.59,1-.3,1.47-.43,1.21-.26,1.8-.43,1.28-.43,1.93-.62c.49-.14,1-.25,1.49-.36.69-.15,1.38-.27,2.07-.44s1.55-.42,2.33-.62a2.67,2.67,0,0,1,.63-.1Z" transform="translate(-960 -489.2)"/><path class="cls-1" d="M1134.49,527.07c-.67.28-1.33.58-2,.83s-1.68.58-2.52.85l-1.91.61-2.57.86c-.61.2-1.23.37-1.83.59-1.1.4-2.2.82-3.3,1.27-.92.38-1.84.76-2.73,1.21s-1.87,1-2.79,1.57c-.14.08-.2.31-.34.54a4.09,4.09,0,0,0,.61.09l11.9,0c.36,0,.73-.24,1.07-.19a20.25,20.25,0,0,1,2.66.55,7.35,7.35,0,0,1,1.41.69,5.23,5.23,0,0,1,2,2.71,7.36,7.36,0,0,1,.26,4.12,5.3,5.3,0,0,1-1.13,2.21,16.43,16.43,0,0,1-4.34,4.22c-1.49,1-3,2-4.6,2.93-1.23.73-2.51,1.38-3.79,2-1.12.56-2.27,1-3.42,1.58-1,.43-1.9.88-2.87,1.28s-2,.79-3,1.18-1.75.71-2.63,1-1.54.51-2.3.78c-.57.2-1.11.46-1.68.64-.85.28-1.71.52-2.56.78-.62.19-1.23.41-1.85.6s-1,.33-1.58.48c-1,.27-2,.53-3,.78-1.41.37-2.86.65-4.24,1.12a9.51,9.51,0,0,1-3.39.27,2.16,2.16,0,0,1-1.68-1.71,5,5,0,0,0-.19-1,1.87,1.87,0,0,1,1.23-2.28c1.68-.5,3.37-1,5.06-1.44,1.19-.33,2.38-.7,3.59-1s2.29-.48,3.43-.78c.79-.2,1.55-.51,2.33-.78.62-.21,1.25-.41,1.86-.64s1.51-.61,2.27-.9,1.63-.59,2.44-.9c1-.38,2-.77,3-1.17s2.06-.85,3.08-1.3c1.21-.54,2.41-1.1,3.62-1.65.9-.42,1.81-.8,2.7-1.25a33.07,33.07,0,0,0,7.44-4.68,3.28,3.28,0,0,0,1-1.43c.3-1-.25-1.7-1.2-2.18a5.43,5.43,0,0,0-2.62-.42l-13.14.09a6.54,6.54,0,0,1-3.55-.7,2.69,2.69,0,0,1-1.46-2,4.26,4.26,0,0,1,1.87-4.07,16.18,16.18,0,0,1,4.75-2.56c1.61-.58,3.2-1.17,4.82-1.7.68-.23,1.41-.29,2.12-.46s1.37-.4,2.07-.57a19.37,19.37,0,0,1,2-.42,32,32,0,0,1,3.64-.43c1.82-.08,3.65,0,5.47,0a4.52,4.52,0,0,1,.53.06Z" transform="translate(-960 -489.2)"/><path class="cls-1" d="M1044.69,527.21a2.68,2.68,0,0,1,2.58,1.06,2.4,2.4,0,0,1,.19,2q-1.55,2.34-3.07,4.68c-.94,1.42-1.9,2.83-2.83,4.26s-2,3.18-3,4.73-2.32,3.28-3.47,4.92c-1.35,1.94-2.65,3.9-4,5.82-1.1,1.54-2.26,3-3.41,4.54-.38.5-.83.95-1.2,1.47s-.9.32-1.33.25-.51-.5-.55-.92a6.64,6.64,0,0,1,.89-3.35c.29-.65.62-1.29.93-1.93.41-.82.8-1.65,1.22-2.46.56-1.11,1.11-2.22,1.72-3.3s1.14-1.84,1.67-2.79,1-2,1.58-3c.71-1.25,1.48-2.46,2.22-3.69s1.36-2.32,2.07-3.46c.86-1.39,1.75-2.76,2.62-4.15a29.64,29.64,0,0,1,2.09-3.26,6.59,6.59,0,0,1,2.11-1.33A2.87,2.87,0,0,1,1044.69,527.21Z" transform="translate(-960 -489.2)"/></svg>